<svg width="33" height="32" viewBox="0 0 33 32" fill="none" xmlns="http://www.w3.org/2000/svg">
<path d="M27.5001 16V24C27.5001 26.9455 25.1123 29.3333 22.1667 29.3333H11.5001C8.55456 29.3333 6.16675 26.9455 6.16675 24V16" stroke="#141718" stroke-width="2.5" stroke-linejoin="round"/>
<path d="M23.1917 2.66663H10.4751C8.05194 2.66663 5.87293 4.3263 4.973 6.85736L3.96235 9.69979C3.65642 10.5602 3.44495 11.4809 3.66809 12.3665C4.19655 14.4636 5.91105 16 7.94452 16C10.3991 16 12.389 13.7614 12.389 11C12.389 13.7614 14.3788 16 16.8334 16C19.288 16 21.2778 13.7614 21.2778 11C21.2778 13.7614 23.2677 16 25.7223 16C27.7558 16 29.4703 14.4636 29.9987 12.3665C30.2219 11.4809 30.0104 10.5602 29.7045 9.69979L28.6938 6.85735C27.7939 4.3263 25.6149 2.66663 23.1917 2.66663Z" stroke="#141718" stroke-width="2.5" stroke-linejoin="round"/>
<path d="M12.8334 25.3334C12.8334 23.1242 14.6242 21.3334 16.8334 21.3334C19.0425 21.3334 20.8334 23.1242 20.8334 25.3334V29.3334H12.8334V25.3334Z" stroke="#141718" stroke-width="2.5" stroke-linejoin="round"/>
</svg>
